# File created by Blade
# Date/Time:  Tue Sep 30 19:08:11 2014
#---------------------------------------------------------
:version 1.10
:name HOM
:units
  mass 1.0
  length 1.000000
  angle deg
:documentation
     Acclaim Skeleton File
:root
   axis xyz
   order TX TY TZ RX RY RZ
   position 0.000000 0.000000 0.000000
   orientation 0 0 0
:bonedata
   begin
      id 1
      name Spine_dum
      direction 0.000000 1.000000 0.000000
      length 7.508948
      axis 0.0 0.0 0.0 xyz
   end
   begin
      id 2
      name LeftUpLeg_dum
      direction 1.000000 0.000000 0.000000
      length 3.000560
      axis 0.0 0.0 0.0 xyz
   end
   begin
      id 3
      name RightUpLeg_dum
      direction -1.000000 0.000000 0.000000
      length 3.000560
      axis 0.0 0.0 0.0 xyz
   end
   begin
      id 4
      name Spine
      direction 0.000000 1.000000 0.000000
      length 0.000000
      axis 0.0 0.0 0.0 xyz
      dof rx ry rz
   end
   begin
      id 5
      name Spine_dum1
      direction 0.000000 1.000000 0.000000
      length 13.861154
      axis 0.0 0.0 0.0 xyz
   end
   begin
      id 6
      name Spine_dum2
      direction 0.000000 1.000000 0.000000
      length 8.204781
      axis 0.0 0.0 0.0 xyz
   end
   begin
      id 7
      name Spine_dum3
      direction 0.000000 1.000000 0.000000
      length 8.204781
      axis 0.0 0.0 0.0 xyz
   end
   begin
      id 8
      name Head
      direction 0.000000 1.000000 0.000000
      length 4.527550
      axis 0.0 0.0 0.0 xyz
      dof rx ry rz
   end
   begin
      id 9
      name LeftShoulder
      direction 1.000000 0.000000 0.000000
      length 6.635956
      axis 0.0 0.0 -90.0 xyz
      dof rx ry rz
   end
   begin
      id 10
      name LeftArm
      direction 1.000000 0.000000 0.000000
      length 10.274218
      axis 0.0 0.0 -90.0 xyz
      dof rx ry rz
   end
   begin
      id 11
      name LeftForeArm
      direction 1.000000 0.000000 0.000000
      length 8.522147
      axis 0.0 0.0 -90.0 xyz
      dof ry rz rx
   end
   begin
      id 12
      name LeftHand
      direction 0.000000 0.000000 0.000000
      length 0.000000
      axis 0.0 0.0 -90.0 xyz
      dof rx ry rz
   end
   begin
      id 13
      name LeftHand_dum1
      direction 0.000000 0.000000 0.000000
      length 0.000000
      axis 0.0 0.0 -90.0 xyz
   end
   begin
      id 14
      name LeftHand_dum2
      direction 1.000000 0.000000 0.000000
      length 3.937000
      axis 0.0 0.0 -90.0 xyz
   end
   begin
      id 15
      name LeftHandThumb1
      direction 0.000000 0.000000 1.000000
      length 3.937000
      axis 0.0 0.0 -90.0 xyz
      dof rx rz ry
   end
   begin
      id 16
      name RightShoulder
      direction -1.000000 0.000000 0.000000
      length 6.635956
      axis 0.0 0.0 90.0 xyz
      dof rx ry rz
   end
   begin
      id 17
      name RightArm
      direction -1.000000 0.000000 0.000000
      length 10.274218
      axis 0.0 0.0 90.0 xyz
      dof rx ry rz
   end
   begin
      id 18
      name RightForeArm
      direction -1.000000 0.000000 0.000000
      length 8.522147
      axis 0.0 0.0 90.0 xyz
      dof ry rz rx
   end
   begin
      id 19
      name RightHand
      direction 0.000000 0.000000 0.000000
      length 0.000000
      axis 0.0 0.0 90.0 xyz
      dof rx ry rz
   end
   begin
      id 20
      name RightHand_dum1
      direction 0.000000 0.000000 0.000000
      length 0.000000
      axis 0.0 0.0 90.0 xyz
   end
   begin
      id 21
      name RightHand_dum2
      direction -1.000000 0.000000 0.000000
      length 3.937000
      axis 0.0 0.0 90.0 xyz
   end
   begin
      id 22
      name RightHandThumb1
      direction 0.000000 0.000000 1.000000
      length 3.937000
      axis 0.0 0.0 90.0 xyz
      dof rx rz ry
   end
   begin
      id 23
      name LeftUpLeg
      direction 0.000000 -1.000000 0.000000
      length 16.490845
      axis 0.0 0.0 0.0 xyz
      dof rx ry rz
   end
   begin
      id 24
      name LeftLeg
      direction 0.000000 -1.000000 0.000000
      length 14.556576
      axis 0.0 0.0 0.0 xyz
      dof rx ry rz
   end
   begin
      id 25
      name LeftFoot
      direction 0.000000 -0.258819 0.965926
      length 4.831116
      axis 15.0 0.0 0.0 xyz
      dof rx ry rz
   end
   begin
      id 26
      name LeftToeBase
      direction 0.000000 0.000000 1.000000
      length 2.952750
      axis 0.0 0.0 0.0 xyz
      dof rx ry rz
   end
   begin
      id 27
      name RightUpLeg
      direction 0.000000 -1.000000 0.000000
      length 16.490845
      axis 0.0 0.0 0.0 xyz
      dof rx ry rz
   end
   begin
      id 28
      name RightLeg
      direction 0.000000 -1.000000 0.000000
      length 14.556576
      axis 0.0 0.0 0.0 xyz
      dof rx ry rz
   end
   begin
      id 29
      name RightFoot
      direction 0.000000 -0.258819 0.965926
      length 4.831116
      axis 15.0 0.0 0.0 xyz
      dof rx ry rz
   end
   begin
      id 30
      name RightToeBase
      direction 0.000000 0.000000 1.000000
      length 2.952750
      axis 0.0 0.0 0.0 xyz
      dof rx ry rz
   end
:hierarchy
   begin
      root Spine_dum LeftUpLeg_dum RightUpLeg_dum
      Spine_dum Spine
      LeftUpLeg_dum LeftUpLeg
      RightUpLeg_dum RightUpLeg
      Spine Spine_dum1 Spine_dum2 Spine_dum3
      Spine_dum1 Head
      Spine_dum2 LeftShoulder
      Spine_dum3 RightShoulder
      LeftShoulder LeftArm
      LeftArm LeftForeArm
      LeftForeArm LeftHand
      LeftHand LeftHand_dum1 LeftHand_dum2
      LeftHand_dum1 LeftHandThumb1
      RightShoulder RightArm
      RightArm RightForeArm
      RightForeArm RightHand
      RightHand RightHand_dum1 RightHand_dum2
      RightHand_dum1 RightHandThumb1
      LeftUpLeg LeftLeg
      LeftLeg LeftFoot
      LeftFoot LeftToeBase
      RightUpLeg RightLeg
      RightLeg RightFoot
      RightFoot RightToeBase
   end

# File created by Blade
# Date/Time:  Thu Sep 25 21:01:51 2014
# Frame Rate: 120.000 fps
#------------------------------------------------------
:FULLY-SPECIFIED
:DEGREES
267
root -3.296672 25.797227 -10.014894 45.031443 0.204809 -7.388985
Spine 31.551812 10.057586 -12.370568
Head -33.338750 30.013673 -9.613886
LeftShoulder 6.065706 -2.546608 15.674727
LeftArm 33.787965 7.170293 -55.524290
LeftForeArm -4.510038 -0.000000 20.390547
LeftHand -25.065495 0.000000 12.475125
LeftHandThumb1 -26.253704 0.000000 33.147579
RightShoulder -8.330193 29.442797 -29.264136
RightArm 17.529033 -17.958224 71.335364
RightForeArm -27.783779 -0.000000 53.137722
RightHand -5.390322 -0.000000 2.688303
RightHandThumb1 -24.326973 -0.000000 -32.862282
LeftUpLeg -96.029696 6.438596 2.728688
LeftLeg 78.348036 -0.000000 -0.000000
LeftFoot -30.909325 -0.001225 -13.334055
LeftToeBase 9.831814 -0.000000 -0.000000
RightUpLeg -92.187433 -7.753158 9.110736
RightLeg 87.341771 -0.000000 -0.000000
RightFoot -19.010009 12.080022 9.202576
RightToeBase -14.245775 -0.000000 0.000000
268
root -3.373699 25.501449 -10.062141 45.140349 0.647045 -7.168370
Spine 31.785436 9.840817 -12.581398
Head -33.882902 30.096776 -9.789940
LeftShoulder 6.132002 -2.755348 15.647064
LeftArm 33.722469 7.219453 -55.278852
LeftForeArm -4.572295 -0.000000 20.190835
LeftHand -25.045740 -0.000000 12.597492
LeftHandThumb1 -26.253704 0.000000 33.147579
RightShoulder -8.345367 29.606645 -29.321465
RightArm 17.497613 -17.742120 70.867234
RightForeArm -27.781016 0.000000 53.122283
RightHand -5.304874 -0.000000 2.631435
RightHandThumb1 -24.326973 -0.000000 -32.862282
LeftUpLeg -97.186190 6.240876 2.685768
LeftLeg 79.824681 -0.000000 -0.000000
LeftFoot -31.355721 -0.321577 -13.314581
LeftToeBase 9.910997 -0.000000 -0.000000
RightUpLeg -93.336230 -8.063938 9.501348
RightLeg 89.075089 -0.000000 -0.000000
RightFoot -19.609528 11.642688 8.842149
RightToeBase -14.128798 -0.000000 0.000000
269
root -3.411583 25.187474 -10.093194 45.097740 0.801228 -6.689919
Spine 32.147452 9.790782 -13.177706
Head -34.401909 30.074715 -9.788268
LeftShoulder 6.239513 -3.028174 15.626090
LeftArm 33.645143 7.260926 -55.030868
LeftForeArm -4.652941 0.000000 19.990392
LeftHand -25.150452 -0.000000 12.573328
LeftHandThumb1 -26.253704 0.000000 33.147579
RightShoulder -8.402506 29.686980 -29.268472
RightArm 17.542006 -17.516874 70.331447
RightForeArm -27.671574 0.000000 53.074297
RightHand -5.394860 -0.000000 2.748382
RightHandThumb1 -24.326973 -0.000000 -32.862282
LeftUpLeg -98.222643 6.055566 2.111614
LeftLeg 81.435008 -0.000000 -0.000000
LeftFoot -31.709709 -0.695965 -13.137893
LeftToeBase 9.803580 -0.000000 -0.000000
RightUpLeg -94.500126 -8.582507 9.645253
RightLeg 90.990325 -0.000000 -0.000000
RightFoot -20.018765 11.253248 8.595303
RightToeBase -14.262648 -0.000000 0.000000
270
root -3.493207 24.870896 -10.139153 45.118588 1.253718 -6.481770
Spine 32.370723 9.706692 -13.324235
Head -34.759209 30.104879 -9.721051
LeftShoulder 6.375471 -3.123783 15.635068
LeftArm 33.687794 7.271295 -54.851908
LeftForeArm -4.677158 0.000000 19.759990
LeftHand -25.149138 -0.000000 12.811697
LeftHandThumb1 -26.253704 0.000000 33.147579
RightShoulder -8.403729 29.726156 -29.308769
RightArm 17.494648 -17.320213 69.761080
RightForeArm -27.474831 0.000000 52.993621
RightHand -5.434718 -0.000000 2.855371
RightHandThumb1 -24.326973 -0.000000 -32.862282
LeftUpLeg -99.397025 5.951625 1.992157
LeftLeg 83.043097 -0.000000 -0.000000
LeftFoot -31.970453 -1.176440 -12.967036
LeftToeBase 9.684514 -0.000000 -0.000000
RightUpLeg -95.764214 -8.984003 10.295484
RightLeg 92.893056 -0.000000 -0.000000
RightFoot -20.312266 10.515682 8.187484
RightToeBase -14.613671 -0.000000 0.000000
271
root -3.578169 24.550408 -10.179160 45.077728 1.734623 -6.283225
Spine 32.654904 9.631604 -13.407537
Head -35.174391 30.046906 -9.737977
LeftShoulder 6.526307 -3.311214 15.575399
LeftArm 33.616102 7.241926 -54.688917
LeftForeArm -4.707601 0.000000 19.607854
LeftHand -25.255487 0.000000 12.618236
LeftHandThumb1 -26.253704 0.000000 33.147579
RightShoulder -8.456942 29.829764 -29.368069
RightArm 17.442626 -17.225863 69.161470
RightForeArm -27.381481 -0.000000 52.783107
RightHand -5.336328 0.000000 2.681998
RightHandThumb1 -24.326973 -0.000000 -32.862282
LeftUpLeg -100.511385 5.867163 1.881025
LeftLeg 84.652711 -0.000000 -0.000000
LeftFoot -32.204028 -1.692278 -12.720896
LeftToeBase 9.409930 -0.000000 -0.000000
RightUpLeg -97.017515 -9.445076 11.056112
RightLeg 94.830237 -0.000000 -0.000000
RightFoot -20.553412 9.895801 7.961745
RightToeBase -14.523428 -0.000000 0.000000
272
root -3.659653 24.221897 -10.214311 44.966879 2.190579 -6.020036
Spine 32.980593 9.610929 -13.530405
Head -35.507362 29.967505 -9.683411
LeftShoulder 6.708883 -3.544151 15.480146
LeftArm 33.573913 7.316938 -54.432410
LeftForeArm -4.951719 -0.000000 19.380738
LeftHand -25.382486 -0.000000 13.379270
LeftHandThumb1 -26.253704 0.000000 33.147579
RightShoulder -8.519717 29.815297 -29.402033
RightArm 17.457927 -17.139025 68.505634
RightForeArm -27.356986 -0.000000 52.520346
RightHand -5.240616 -0.000000 2.664298
RightHandThumb1 -24.326973 -0.000000 -32.862282
LeftUpLeg -101.573285 5.777208 1.592772
LeftLeg 86.264054 -0.000000 -0.000000
LeftFoot -32.442068 -2.230283 -12.597485
LeftToeBase 9.323284 -0.000000 -0.000000
RightUpLeg -98.249570 -9.926393 11.687904
RightLeg 96.821056 -0.000000 -0.000000
RightFoot -20.669839 9.176013 7.516492
RightToeBase -14.854361 -0.000000 0.000000
273
root -3.752113 23.888678 -10.248746 44.831672 2.689224 -5.820965
Spine 33.266459 9.583268 -13.594509
Head -35.765755 29.947697 -9.599153
LeftShoulder 6.855502 -3.639218 15.385626
LeftArm 33.587339 7.280440 -54.185708
LeftForeArm -5.060664 -0.000000 19.196356
LeftHand -25.485871 -0.000000 13.233620
LeftHandThumb1 -26.253704 0.000000 33.147579
RightShoulder -8.531390 29.580476 -29.266711
RightArm 17.768178 -17.133345 67.597068
RightForeArm -27.110182 -0.000000 52.303288
RightHand -5.425798 -0.000000 2.701264
RightHandThumb1 -24.326973 -0.000000 -32.862282
LeftUpLeg -102.617919 5.748174 1.437514
LeftLeg 87.858313 -0.000000 -0.000000
LeftFoot -32.666505 -2.896069 -12.362591
LeftToeBase 9.247359 -0.000000 -0.000000
RightUpLeg -99.450974 -10.342658 12.325151
RightLeg 98.792122 -0.000000 -0.000000
RightFoot -20.741543 8.566582 7.274091
RightToeBase -15.226486 -0.000000 0.000000
274
root -3.829937 23.551138 -10.278425 44.640814 3.046522 -5.538437
Spine 33.586603 9.628849 -13.828411
Head -36.046124 29.867078 -9.456336
LeftShoulder 6.964956 -3.859488 15.268198
LeftArm 33.560741 7.567763 -53.702099
LeftForeArm -5.705664 -0.000000 18.971490
LeftHand -25.444173 -0.000000 13.670073
LeftHandThumb1 -26.253704 0.000000 33.147579
RightShoulder -8.593559 29.543772 -29.198196
RightArm 17.912743 -17.166712 66.836790
RightForeArm -26.982951 -0.000000 51.919044
RightHand -5.451609 -0.000000 2.808135
RightHandThumb1 -24.326973 -0.000000 -32.862282
LeftUpLeg -103.598508 5.759371 1.067582
LeftLeg 89.483023 -0.000000 -0.000000
LeftFoot -32.841280 -3.627875 -12.152741
LeftToeBase 9.145856 -0.000000 -0.000000
RightUpLeg -100.586521 -10.657665 12.536220
RightLeg 100.771777 -0.000000 -0.000000
RightFoot -20.685749 8.056237 7.204767
RightToeBase -15.881043 -0.000000 0.000000
275
root -3.919528 23.200930 -10.296575 44.301193 3.490701 -5.290336
Spine 34.030385 9.731525 -13.940085
Head -36.292208 29.802863 -9.250961
LeftShoulder 7.129551 -3.941367 15.267246
LeftArm 33.606066 7.535350 -53.513646
LeftForeArm -5.972993 -0.000000 18.751932
LeftHand -25.545925 -0.000000 13.856987
LeftHandThumb1 -26.253704 0.000000 33.147579
RightShoulder -8.715420 29.407519 -29.097673
RightArm 18.166286 -17.278401 65.964104
RightForeArm -26.919748 -0.000000 51.468089
RightHand -5.333096 -0.000000 2.764806
RightHandThumb1 -24.326973 -0.000000 -32.862282
LeftUpLeg -104.459172 5.788075 0.795403
LeftLeg 91.171534 -0.000000 -0.000000
LeftFoot -33.018256 -4.463119 -11.942608
LeftToeBase 9.022462 -0.000000 -0.000000
RightUpLeg -101.508386 -11.178427 12.903253
RightLeg 102.716423 -0.000000 -0.000000
RightFoot -20.811066 7.883666 6.917764
RightToeBase -16.539749 -0.000000 0.000000
276
root -4.015135 22.844756 -10.312339 43.936177 3.929863 -5.131002
Spine 34.393692 9.830426 -14.030189
Head -36.419059 29.753299 -9.005717
LeftShoulder 7.222006 -3.915804 15.240897
LeftArm 33.648600 7.179827 -53.576234
LeftForeArm -5.764639 -0.000000 18.508096
LeftHand -25.570952 -0.000000 13.854493
LeftHandThumb1 -26.253704 0.000000 33.147579
RightShoulder -8.700290 29.347016 -28.975391
RightArm 18.278881 -17.317380 65.201708
RightForeArm -26.609592 -0.000000 51.083773
RightHand -5.532612 0.000000 3.148527
RightHandThumb1 -24.326973 -0.000000 -32.862282
LeftUpLeg -105.332090 5.917546 0.590459
LeftLeg 92.871753 -0.000000 -0.000000
LeftFoot -33.105105 -5.375011 -11.697657
LeftToeBase 8.933797 -0.000000 -0.000000
RightUpLeg -102.315342 -11.506607 13.032346
RightLeg 104.625117 -0.000000 -0.000000
RightFoot -20.822653 8.022865 7.045631
RightToeBase -17.501175 -0.000000 0.000000
277
root -4.111275 22.484220 -10.323953 43.474051 4.367959 -4.957624
Spine 34.848163 9.973395 -14.119991
Head -36.553096 29.755735 -8.708428
LeftShoulder 7.349742 -4.016753 15.269264
LeftArm 33.578291 6.992457 -53.616753
LeftForeArm -5.515851 -0.000000 18.289679
LeftHand -25.806446 -0.000000 14.143235
LeftHandThumb1 -26.253704 0.000000 33.147579
RightShoulder -8.753155 29.276556 -28.893980
RightArm 18.448707 -17.483405 64.423806
RightForeArm -26.665675 -0.000000 50.416176
RightHand -5.041084 -0.000000 3.161738
RightHandThumb1 -24.326973 -0.000000 -32.862282
LeftUpLeg -106.121891 6.041310 0.381616
LeftLeg 94.593784 -0.000000 -0.000000
LeftFoot -33.177265 -6.310073 -11.757307
LeftToeBase 8.630775 -0.000000 -0.000000
RightUpLeg -102.957358 -11.885579 13.019340
RightLeg 106.497902 -0.000000 -0.000000
RightFoot -21.014119 8.271522 7.022067
RightToeBase -18.094411 -0.000000 0.000000
